<svg width="30" height="41" fill="none" xmlns="http://www.w3.org/2000/svg"><path fill-rule="evenodd" clip-rule="evenodd" d="M28.078 0a1.791 1.791 0 011.715 2.309L18.118 41h-4.407l1.178-3.905c.155-.514-.117-.936-.612-.973l-.073-.003H6.86c-.54 0-1.111.437-1.274.976L4.407 41H0L11.795 1.91A2.687 2.687 0 0114.367 0a1.791 1.791 0 011.715 2.309L15.6 3.905c-.155.514.117.936.613.973l.072.003h7.345c.541 0 1.111-.437 1.274-.976l.602-1.994A2.687 2.687 0 0128.078 0zM10.836 22.94c-.541 0-1.112.438-1.274.977l-1.915 6.345c-.162.539.144.976.685.976h7.345c.541 0 1.111-.437 1.274-.976l1.915-6.345c.162-.54-.144-.977-.685-.977h-7.345zm3.976-13.178c-.54 0-1.111.437-1.274.976l-1.914 6.345c-.163.54.144.977.684.977h7.346c.54 0 1.11-.438 1.274-.977l1.914-6.345c.163-.539-.144-.976-.685-.976h-7.345z" fill="#010F29"/></svg>