<svg width="84" height="157" fill="none" xmlns="http://www.w3.org/2000/svg"><path opacity=".081" fill-rule="evenodd" clip-rule="evenodd" d="M83.02 115.085c0 24.94-16.77 41.495-41.495 41.495C16.8 156.58.03 140.025.03 115.085v-72.67C.03 17.26 16.585.92 41.31.92c24.295 0 40.205 15.91 40.85 41.28H52.92c-.86-7.955-4.3-12.9-11.61-12.9s-11.825 3.87-11.825 12.685v18.92c4.3-3.44 10.965-5.375 16.985-5.375 21.93 0 36.55 16.34 36.55 38.27v21.285zm-53.535-.215c0 8.385 4.515 13.33 12.04 13.33 7.525 0 12.04-4.945 12.04-13.33V95.95c0-8.6-4.3-13.76-11.825-13.76-7.74 0-12.255 5.16-12.255 13.76v18.92z" fill="#E9F1FF"/></svg>